<?xml version="1.0" encoding="UTF-8"?>
<svg id="Camada_2" xmlns="http://www.w3.org/2000/svg" viewBox="0 0 1742 344.75">
  <defs>
    <style>
      .cls-1 {
        fill: none;
        stroke: #c82b35;
        stroke-miterlimit: 10;
        stroke-width: 15px;
      }

      .cls-2 {
        fill: #c82b35;
      }
    </style>
  </defs>
  <g>
    <path d="M86.52,57.33c0,10.8-8.8,19.2-19.6,19.2s-19.2-8.4-19.2-19.6,8.4-19.6,19.6-19.6,19.2,8.8,19.2,20Zm-4.4,236h-30.4V108.93h30.4v184.4Z" />
    <path d="M161.71,108.93v26c16-21.6,32-30.4,54.8-30.4,16.8,0,32,5.6,42.8,15.2,11.6,11.2,15.6,24,15.6,49.2v124.4h-30.4v-117.6c0-16.4-2-25.2-6.8-31.6-5.6-7.6-16.4-12.4-28.8-12.4-13.6,0-26,5.2-35.2,15.6-8.8,9.6-12,18.4-12,33.6v112.4h-30.4V108.93h30.4Z" />
    <path d="M355.31,255.73c.4,9.2,2.8,11.2,14,11.2h14v26.4h-28.4c-21.6-.4-30-8.4-30-28.8V135.73h-25.6v-26.8h25.6V50.93h30.4v58h28v26.8h-28v120Z" />
    <path d="M443.71,108.93v31.2c5.6-13.2,9.6-18.8,16.8-24.4,9.2-7.2,22-11.2,35.2-11.2h7.2v30.8c-3.2-.4-6.4-.4-8.4-.4-16.4,0-30.8,7.6-40,21.2-8,11.6-10.8,22.4-10.8,43.6v93.6h-30.4V108.93h30.4Z" />
    <path d="M661.31,108.93h30.4v184.4h-30.4v-35.6c-18.4,27.6-39.2,40-67.2,40-50.8,0-86.8-40-86.8-96s36.8-97.2,87.6-97.2c28,0,48.4,10.8,66.4,34.8v-30.4Zm-106.8,44.8c-9.6,13.2-15.2,30.8-15.2,48.8,0,39.2,25.6,68.8,59.2,68.8s63.2-32.4,63.2-72-25.6-67.6-62.4-67.6c-20,0-34,6.8-44.8,22Z" />
  </g>
  <path d="M867.41,159.33v-2c0-17.2-14-28-35.2-28s-33.2,10.4-33.2,26.4,8,22,41.2,31.2c23.6,6.4,36,12.4,44.8,21.2,9.2,9.2,14.8,22.4,14.8,36,0,32-26.4,53.6-65.6,53.6-42,0-65.6-19.6-68.8-56.8h30c2,20.8,15.6,32,38.8,32,20.8,0,34.4-10.8,34.4-27.2s-10.4-24-42-32c-40-10.8-58-27.6-58-55.6,0-32,26-53.6,64.8-53.6s62.8,20,64.4,54.8h-30.4Z" />
  <path d="M965.01,134.53c16.8-20.8,33.6-30,55.6-30,16,0,32.8,6.4,42.8,16.8,10,10,14.4,24.4,14.4,48v124h-30.4v-122.4c0-25.2-12.4-39.2-34.4-39.2-14,0-26.4,5.6-36,16.4-9.2,10.4-12,19.6-12,37.2v108h-30.4V26.53h30.4v108Z" />
  <path d="M1143.41,210.93c1.6,15.6,4.4,23.6,12,33.6,12,16.4,29.6,25.2,49.6,25.2,22.8,0,44.4-12.4,55.2-31.6l26.8,10c-15.2,30.8-46.8,49.6-82,49.6-54.8,0-94-40-94-96s38.8-97.2,92.8-97.2,93.6,40.4,93.6,94.4c0,2.4,0,7.6-.4,12h-153.6Zm121.6-22.4c-1.2-14.4-4-22.4-10.4-31.6-11.6-15.6-30.4-25.2-50.8-25.2s-38.8,9.6-49.6,25.6c-5.6,8.8-8,16.4-10.4,31.2h121.2Z" />
  <path d="M1347,210.93c1.6,15.6,4.4,23.6,12,33.6,12,16.4,29.6,25.2,49.6,25.2,22.8,0,44.4-12.4,55.2-31.6l26.8,10c-15.2,30.8-46.8,49.6-82,49.6-54.8,0-94-40-94-96s38.8-97.2,92.8-97.2,93.6,40.4,93.6,94.4c0,2.4,0,7.6-.4,12h-153.6Zm121.6-22.4c-1.2-14.4-4-22.4-10.4-31.6-11.6-15.6-30.4-25.2-50.8-25.2s-38.8,9.6-49.6,25.6c-5.6,8.8-8,16.4-10.4,31.2h121.2Z" />
  <path d="M1562.2,255.73c.4,9.2,2.8,11.2,14,11.2h14v26.4h-28.4c-21.6-.4-30-8.4-30-28.8V135.73h-25.6v-26.8h25.6V50.93h30.4v58h28v26.8h-28v120Z" />
  <path d="M1706.59,159.33v-2c0-17.2-14-28-35.2-28s-33.2,10.4-33.2,26.4,8,22,41.2,31.2c23.6,6.4,36,12.4,44.8,21.2,9.2,9.2,14.8,22.4,14.8,36,0,32-26.4,53.6-65.6,53.6-42,0-65.6-19.6-68.8-56.8h30c2,20.8,15.6,32,38.8,32,20.8,0,34.4-10.8,34.4-27.2s-10.4-24-42-32c-40-10.8-58-27.6-58-55.6,0-32,26-53.6,64.8-53.6s62.8,20,64.4,54.8h-30.4Z" />
  <g>
    <rect class="cls-2" x="708" y="305.97" width="36.93" height="36.07" />
    <polyline class="cls-1" points="732.87 297.73 732.87 12.5 12 12.5 12 325.26 700.94 325.26" />
  </g>
</svg>